<svg width="12" height="16" viewBox="0 0 12 16" fill="none" xmlns="http://www.w3.org/2000/svg">
<path fill-rule="evenodd" clip-rule="evenodd" d="M6.19341 15.3774C5.88916 15.7324 5.34002 15.7324 5.03576 15.3774C4.54698 14.7986 4.08392 14.2069 3.64659 13.6024C3.01631 12.7405 2.45678 11.9109 1.968 11.1134C1.37631 10.1101 0.913255 9.17757 0.578824 8.31576C0.192941 7.29961 0 6.39922 0 5.61459C0 4.58557 0.250824 3.64016 0.752471 2.77835C1.25412 1.92941 1.92941 1.25412 2.77835 0.752471C3.64016 0.250824 4.58557 0 5.61459 0C6.64361 0 7.58902 0.250824 8.45082 0.752471C9.29977 1.25412 9.97506 1.92941 10.4767 2.77835C10.9784 3.64016 11.2292 4.58557 11.2292 5.61459C11.2292 6.39922 11.0362 7.29961 10.6504 8.31576C10.3159 9.17757 9.85286 10.1101 9.26118 11.1134C8.77239 11.9109 8.21286 12.7405 7.58259 13.6024C7.14526 14.2069 6.6822 14.7986 6.19341 15.3774ZM4.20773 7.02309C4.59361 7.40897 5.0631 7.60191 5.6162 7.60191C5.97636 7.60191 6.31079 7.51188 6.61949 7.3318C6.9282 7.15172 7.17259 6.91054 7.35267 6.60827C7.53275 6.30599 7.62279 5.97478 7.62279 5.61462C7.62279 5.25446 7.53275 4.92003 7.35267 4.61133C7.17259 4.30262 6.9282 4.05823 6.61949 3.87815C6.31079 3.69807 5.97636 3.60803 5.6162 3.60803C5.25604 3.60803 4.92483 3.69807 4.62255 3.87815C4.32028 4.05823 4.0791 4.30262 3.89902 4.61133C3.71895 4.92003 3.62891 5.25446 3.62891 5.61462C3.62891 6.16772 3.82185 6.63721 4.20773 7.02309Z" fill="#00A693"/>
</svg>
