<svg width="16" height="16" viewBox="0 0 16 16" fill="none" xmlns="http://www.w3.org/2000/svg">
<g clip-path="url(#clip0_59557_457)">
<path d="M4.94141 1.15234C6.83455 0.308989 8.88836 0.311614 10.6797 0.99707C12.3605 1.64023 13.8106 2.88343 14.6807 4.59375L14.8467 4.94238C15.6381 6.71465 15.6855 8.62773 15.123 10.334L15.0029 10.6729C14.3422 12.3955 13.0479 13.8748 11.2656 14.7354L11.2637 14.7363L11.2412 14.7471L11.2256 14.7549L11.2227 14.7568L11.2188 14.7578C10.9895 14.8677 10.7548 14.9663 10.5156 15.0527C9.13935 15.55 7.66289 15.6313 6.27051 15.3037C4.91427 14.9846 3.63423 14.2786 2.59766 13.1904C1.82827 12.3828 1.26952 11.4509 0.922852 10.4639C0.567273 9.45161 0.43381 8.37495 0.53125 7.30664V7.30566C0.536371 7.25196 0.58413 7.21096 0.639648 7.21582C0.69503 7.22082 0.735389 7.26991 0.730469 7.32422C0.636167 8.35787 0.764539 9.40778 1.11328 10.4004C1.45057 11.3607 1.99582 12.2671 2.74414 13.0527C3.74961 14.1082 4.99525 14.7959 6.31543 15.1064C7.67445 15.4261 9.1109 15.3476 10.4463 14.8652C10.9217 14.6935 11.3863 14.4693 11.8311 14.1934V14.1924C12.2722 13.9182 12.6843 13.6001 13.0605 13.2422C13.0639 13.239 13.0665 13.2368 13.0684 13.2354L13.0898 13.2178L13.1104 13.1982C13.8644 12.4583 14.4408 11.5693 14.8115 10.6025C15.48 8.85957 15.4835 6.86086 14.6631 5.02344C13.8426 3.18602 12.3526 1.85365 10.6094 1.18652C8.86467 0.518885 6.86386 0.515544 5.02441 1.33496C4.43857 1.59596 3.90262 1.92563 3.42285 2.31055C2.94755 2.69182 2.52231 3.13147 2.15723 3.61914L1.51367 4.47852L2.58496 4.41797L3.11914 4.3877C3.21392 4.3827 3.29374 4.45592 3.29883 4.54883C3.30376 4.64209 3.2321 4.72238 3.1377 4.72754H3.13672L0.958008 4.84961C0.870564 4.85398 0.795302 4.79291 0.78125 4.70996L0.776367 4.68164L0.768555 4.65527L0.761719 4.60938L0.766602 2.31738V2.31641C0.766602 2.22369 0.842364 2.14766 0.936523 2.14746C1.0074 2.14746 1.06819 2.19015 1.09375 2.25098L1.10645 2.31641L1.10449 3.18457L1.10156 4.68652L2.00391 3.48633C2.37715 2.99042 2.81162 2.54284 3.2959 2.1543C3.78665 1.76063 4.33676 1.4217 4.94141 1.15234ZM7.39453 4.74902C7.46115 4.74925 7.51367 4.80301 7.51367 4.86816V8.96387L7.81348 9.0957L10.3955 10.2285V10.2295C10.4559 10.2561 10.4832 10.3265 10.457 10.3857C10.4306 10.4452 10.3602 10.4726 10.2998 10.4463H10.2988L7.37695 9.16309L7.36426 9.15723L7.35156 9.15234C7.30533 9.13485 7.27445 9.09077 7.27441 9.04102V4.86816C7.27441 4.80286 7.32776 4.74902 7.39453 4.74902Z" stroke="#646464"/>
</g>
<defs>
<clipPath id="clip0_59557_457">
<rect width="16" height="16" fill="white"/>
</clipPath>
</defs>
</svg>
