<svg width="52" height="16" viewBox="0 0 52 16" fill="none" xmlns="http://www.w3.org/2000/svg">
<g clip-path="url(#clip0_59557_22)">
<path d="M7.81961 0.29C7.75961 0.23 7.69961 0.19 7.61961 0.14C7.45961 0.05 7.28961 0 7.10961 0C6.82961 0 6.58961 0.1 6.39961 0.29C6.19961 0.49 6.09961 0.73 6.09961 1C6.09961 1.27 6.19961 1.51 6.39961 1.7C6.58961 1.9 6.82961 2 7.10961 2C7.28961 2 7.45961 1.95 7.61961 1.86C7.69961 1.82 7.75961 1.76 7.81961 1.7V1.95H8.10961V0.04H7.81961V0.29ZM7.60961 0.49C7.74961 0.63 7.81961 0.81 7.81961 1C7.81961 1.19 7.74961 1.37 7.60961 1.51C7.46961 1.65 7.29961 1.72 7.10961 1.72C6.91961 1.72 6.74961 1.65 6.60961 1.51C6.46961 1.37 6.38961 1.2 6.38961 1C6.38961 0.8 6.45961 0.63 6.59961 0.49C6.73961 0.35 6.90961 0.27 7.09961 0.27C7.30961 0.28 7.46961 0.35 7.60961 0.49Z" fill="#3D3D3D"/>
<path d="M5.45043 1.24C5.45043 1.37 5.41043 1.47 5.33043 1.56C5.25043 1.65 5.15043 1.68 5.03043 1.68C4.91043 1.68 4.82043 1.64 4.73043 1.56C4.65043 1.47 4.61043 1.37 4.61043 1.24V0.08V0H4.32043V1.24C4.32043 1.37 4.28043 1.47 4.20043 1.55C4.11043 1.64 4.02043 1.68 3.90043 1.68C3.78043 1.68 3.69043 1.64 3.60043 1.56C3.52043 1.47 3.48043 1.37 3.48043 1.24V0H3.19043V1.24C3.19043 1.46 3.26043 1.63 3.39043 1.76C3.52043 1.89 3.68043 1.95 3.86043 1.95C3.88043 1.95 3.90043 1.95 3.93043 1.95C4.11043 1.95 4.27043 1.88 4.40043 1.76C4.42043 1.74 4.44043 1.72 4.46043 1.69C4.48043 1.72 4.50043 1.74 4.52043 1.76C4.66043 1.89 4.82043 1.95 5.00043 1.95H5.03043H5.07043C5.25043 1.95 5.41043 1.88 5.54043 1.76C5.68043 1.63 5.74043 1.45 5.74043 1.24V0H5.45043V1.24Z" fill="#3D3D3D"/>
<path d="M9.34973 0C9.09973 0 8.90973 0.07 8.75973 0.22V0.04H8.46973V1.95H8.75973V0.85C8.75973 0.7 8.81973 0.56 8.93973 0.44C9.05973 0.33 9.19973 0.28 9.34973 0.28C9.50973 0.28 9.63973 0.34 9.74973 0.45C9.84973 0.56 9.90973 0.7 9.90973 0.85V1.95H10.1997V0.85C10.1997 0.61 10.1197 0.41 9.95973 0.24C9.78973 0.08 9.58973 0 9.34973 0Z" fill="#3D3D3D"/>
<path d="M12.2796 0.29C12.0896 0.1 11.8496 0 11.5696 0C11.2896 0 11.0496 0.1 10.8596 0.29C10.6596 0.48 10.5596 0.72 10.5596 0.99C10.5596 1.26 10.6596 1.49 10.8496 1.69C11.0396 1.89 11.2796 1.99 11.5496 1.99H11.5896C11.8596 1.99 12.0996 1.89 12.2896 1.69C12.4796 1.49 12.5796 1.25 12.5796 0.99C12.5696 0.72 12.4796 0.49 12.2796 0.29ZM12.2796 1C12.2796 1.19 12.2096 1.37 12.0696 1.51C11.9296 1.65 11.7596 1.72 11.5696 1.72C11.3696 1.72 11.2096 1.65 11.0596 1.51C10.9296 1.37 10.8496 1.2 10.8496 1C10.8496 0.8 10.9196 0.64 11.0596 0.49C11.1996 0.34 11.3696 0.27 11.5696 0.27C11.7596 0.27 11.9296 0.34 12.0696 0.49C12.2096 0.63 12.2796 0.8 12.2796 1Z" fill="#3D3D3D"/>
<path d="M2.77 0.35C2.57 0.12 2.31 0 2.03 0C1.74 0 1.49 0.1 1.3 0.3C1.1 0.49 1 0.73 1 0.99C1 1.26 1.1 1.49 1.3 1.69C1.49 1.9 1.73 2 2 2H2.03C2.31 2 2.56 1.89 2.76 1.67L2.81 1.61L2.61 1.4L2.55 1.47C2.49 1.53 2.43 1.59 2.35 1.63C2.24 1.69 2.11 1.73 1.97 1.73C1.86 1.73 1.74 1.69 1.61 1.6L2.82 0.41L2.77 0.35ZM2.42 0.41L1.42 1.4C1.33 1.28 1.29 1.14 1.29 0.98C1.29 0.8 1.36 0.63 1.5 0.49C1.64 0.35 1.8 0.28 1.99 0.28C2.15 0.28 2.29 0.32 2.42 0.41Z" fill="#3D3D3D"/>
<path d="M30.9 9.67011C31.01 4.66011 25.04 2.11011 21.49 5.63011L21.25 5.86011L21.49 6.10011L28.03 12.6401C26.55 13.8601 24.27 13.9101 22.77 12.5901C22.64 12.4801 22.39 12.2401 22.27 12.1101L21.25 13.1301C21.39 13.2701 21.68 13.5501 21.83 13.6801C25.36 16.6601 30.74 14.2801 30.9 9.67011ZM23.36 5.89011C24.47 5.27011 25.85 5.17011 27.03 5.70011C29.28 6.66011 30.16 9.42011 28.98 11.4801C27.23 9.53011 25.37 7.60011 23.36 5.89011Z" fill="#3D3D3D"/>
<path d="M2.03 12.79C1.89 12.69 1.63 12.47 1.5 12.36L0.59 13.43L0.89 13.68C2.8 15.32 5.73 15.4 7.73 13.86C7.96 13.69 8.16 13.5 8.36 13.31C8.54 13.46 8.71 13.61 8.87 13.74C11.13 15.83 14.86 15.15 16.23 12.39C16.49 11.87 16.66 11.31 16.72 10.74C16.75 10.27 16.74 9.57996 16.74 9.08996V5.99996H15.31V9.08996C15.3 9.96996 15.4 10.95 14.96 11.75C14.24 13.23 12.36 13.96 10.84 13.33C10.45 13.18 10.09 12.95 9.78 12.67C9.78 12.67 9.49 12.42 9.2 12.18C10.8 9.34996 9.59 5.45996 6.17 4.28996C4.08 3.55996 1.62 4.25996 0.22 5.94996L0 6.19996C1.91 7.81996 4.94 10.41 7.28 12.4C5.91 13.74 3.63 13.98 2.03 12.79ZM2.08 6.12996C3.13 5.40996 4.5 5.18996 5.72 5.60996C8.05 6.37996 9.15 9.08996 8.1 11.24C6.59 9.95996 3.83 7.61996 2.08 6.12996Z" fill="#3D3D3D"/>
<path d="M12.99 4.98C13.54 4.98 13.98 4.54 13.98 3.99C13.98 3.44 13.54 3 12.99 3C12.45 3 12 3.45 12 3.99C12 4.53 12.45 4.98 12.99 4.98Z" fill="#3D3D3D"/>
<path d="M34.0002 14.99V4H32.4102L32.4402 14.99H34.0002Z" fill="#3D3D3D"/>
<path d="M19.8996 14.99V4H18.3096L18.3396 14.99H19.8996Z" fill="#3D3D3D"/>
<path d="M42.2961 10.5334L43.3954 0H39.148C37.4091 0 36 1.40912 36 3.14803V4.797L42.2961 10.5334Z" fill="#3D3D3D"/>
<path d="M48.842 0H44.3748L43.2455 10.7933L47.8126 9.02436L48.6221 4.70706C48.5622 4.66708 48.5222 4.62711 48.4922 4.55715C48.4322 4.38726 48.5122 4.20737 48.6821 4.13741C48.852 4.07745 49.0319 4.1574 49.1018 4.3273C49.1618 4.49719 49.0818 4.67708 48.9119 4.74703C48.8919 4.75703 48.872 4.75703 48.852 4.75703L48.0924 8.7945L50.9107 5.94628C50.9107 5.93629 50.9007 5.93629 50.9007 5.9263C50.8407 5.7564 50.9207 5.57652 51.0906 5.50656C51.2605 5.4466 51.4404 5.52655 51.5103 5.69644C51.5703 5.86633 51.4903 6.04622 51.3204 6.11618C51.2405 6.14616 51.1605 6.13617 51.0806 6.10618L48.1124 9.10431L48.4023 9.86384L37.3592 14.1412L36.9994 13.2117L41.7164 11.3829L36 6.13616V12.852C36 14.5909 37.4091 16 39.148 16H48.852C50.5909 16 52 14.5909 52 12.852V3.14803C51.99 1.40912 50.5809 0 48.842 0Z" fill="#3D3D3D"/>
</g>
<defs>
<clipPath id="clip0_59557_22">
<rect width="52" height="16" fill="white"/>
</clipPath>
</defs>
</svg>
